<svg width="218" height="218" viewBox="0 0 218 218" fill="none" xmlns="http://www.w3.org/2000/svg">
<g clip-path="url(#clip0_6_23)">
<path d="M89.7121 132.546C94.5234 117.175 117.09 50.7957 120.496 32.1039C121.646 25.8875 120.368 17.457 112.577 16.4352C109.298 16.0094 105.977 17.968 103.507 19.8414C102.869 20.3098 97.7594 25.8023 97.8871 25.8449C97.8445 25.8449 90.4785 23.3328 90.4785 23.3328C90.4785 23.3328 83.1551 20.8207 83.0699 20.8207C83.1977 20.8633 82.4738 13.4121 82.2609 12.6457C81.452 9.62265 80.0043 6.04609 77.1516 4.42812C70.3391 0.510931 64.2078 6.38671 61.3125 12.007C52.6266 28.868 29.975 95.2473 24.3973 110.363C23.6734 112.279 22.9922 114.195 22.2684 116.111C20.9059 119.73 22.5238 123.86 26.0578 125.52C31.082 127.905 38.448 129.565 44.3238 123.689L55.0535 127.351L65.7832 131.013C66.8477 139.273 73.7027 142.424 79.1527 143.616C82.9422 144.468 86.7316 142.168 87.8813 138.464C88.4773 136.463 89.0734 134.504 89.7121 132.546Z" fill="#E453F5"/>
<path d="M80.6855 146.809C79.9617 146.809 79.1953 146.724 78.4715 146.554C70.1261 144.723 64.7187 140.039 63.1008 133.27L45.0476 127.138C39.6402 131.481 32.4871 131.907 24.7379 128.288C19.8414 125.989 17.4996 120.155 19.373 115.046L21.5019 109.298C22.7367 105.892 24.8656 99.9308 27.548 92.3519C36.6172 66.7199 51.775 23.8437 58.5875 10.6019C61.1847 5.53515 65.2722 1.78827 69.4449 0.553506C72.5531 -0.42579 75.789 -0.0425873 78.7269 1.70312C81.75 3.44882 83.8789 6.76991 85.284 11.7941C85.3265 12.007 85.4968 12.6031 85.88 16.648C85.9652 17.3719 86.0078 18.0105 86.0504 18.5215L91.4578 20.3523C91.4578 20.3523 94.6937 21.4594 96.8652 22.1832C97.2484 21.8 97.6742 21.3316 98.1425 20.7781C100.91 17.8402 101.421 17.457 101.591 17.3293C105.764 14.1785 109.468 12.8586 112.917 13.3269C116.281 13.7953 119.091 15.4133 121.007 18.0105C123.562 21.5445 124.498 26.9945 123.477 32.6148C120.794 47.2617 106.616 90.4785 98.1425 116.281C95.6304 123.902 93.6718 129.948 92.5648 133.397L90.734 139.273C89.414 143.829 85.1988 146.809 80.6855 146.809ZM44.3238 120.539C44.6644 120.539 45.0051 120.581 45.3031 120.709L66.7625 128.032C67.8695 128.416 68.6785 129.395 68.8488 130.545C69.53 135.739 73.2343 139.103 79.7914 140.55C81.9629 141.019 84.2195 139.699 84.9007 137.527L86.7316 131.652C87.8386 128.16 89.7972 122.114 92.3093 114.45C100.74 88.7754 114.833 45.814 117.43 31.593C117.984 28.5273 117.941 24.3121 116.068 21.7574C115.174 20.4801 113.854 19.7562 112.151 19.5433C110.405 19.3305 108.148 20.2246 105.423 22.3109C104.7 22.9496 101.208 26.6539 100.484 27.548C99.7179 28.6976 98.2703 29.2512 96.9078 28.7828L89.4992 26.2707C89.4992 26.2707 82.3886 23.8437 82.0906 23.7586C80.7281 23.2902 79.9191 21.9703 80.0043 20.5652C79.9617 19.4156 79.4507 14.3488 79.2804 13.4121C78.3863 10.091 77.1515 8.00468 75.6187 7.11054C74.1285 6.25898 72.6808 6.04608 71.1906 6.47187C68.125 7.36601 65.5277 10.6445 64.0801 13.4547C57.4379 26.3133 42.3652 68.934 33.3812 94.4383C30.6988 102.017 28.5699 108.021 27.2926 111.47L25.1636 117.218C24.3547 119.346 25.334 121.773 27.3351 122.753C33.4238 125.605 38.4054 125.222 42.1097 121.518C42.7484 120.837 43.5148 120.539 44.3238 120.539Z" fill="#1D2228"/>
<path d="M44.3238 126.712C43.8128 126.712 43.2593 126.585 42.7484 126.287C41.2582 125.435 40.7898 123.519 41.6414 122.071C47.0062 112.96 37.3836 106.105 36.9578 105.807C35.5527 104.827 35.2121 102.911 36.1914 101.506C37.1707 100.101 39.0867 99.7605 40.4918 100.74C45.6011 104.316 53.5632 114.024 46.9636 125.222C46.4101 126.159 45.3882 126.712 44.3238 126.712ZM46.4953 94.0976C44.4941 94.0976 42.4929 93.7144 40.5343 92.948C35.425 90.8617 32.1464 86.5187 31.7207 81.239C31.5929 79.5359 32.8703 78.0457 34.5308 77.918C36.2339 77.7902 37.7242 79.0676 37.8519 80.7281C38.1925 84.8582 41.4711 86.6465 42.8336 87.2C46.0695 88.5199 49.7738 87.9664 52.2859 85.7949C56.2031 82.3887 55.4793 76.5129 52.7117 72.5105C51.7324 71.1055 52.1156 69.1894 53.5207 68.2101C54.9257 67.2308 56.8418 67.614 57.8211 69.0191C62.1214 75.2781 63.0156 84.6453 56.3734 90.4359C53.6484 92.8629 50.1144 94.0976 46.4953 94.0976ZM76.4703 42.0672C75.3207 42.0672 74.2136 41.4285 73.7027 40.3215C72.8937 38.6183 71.8718 37.5965 70.5945 37.1707C68.423 36.4469 66.0812 37.639 66.0812 37.639C64.5484 38.4055 62.7175 37.8094 61.9085 36.3191C61.1421 34.8289 61.6957 32.9555 63.1859 32.189C63.6543 31.9336 67.8695 29.8047 72.4679 31.2949C74.4691 31.9336 77.2793 33.5515 79.2378 37.5965C80.0043 39.1293 79.3656 40.9601 77.8328 41.7265C77.3644 41.982 76.9386 42.0672 76.4703 42.0672ZM73.4472 59.5668C67.7418 59.5668 63.6117 54.5426 63.1433 53.9465C62.164 52.7117 62.3769 50.8808 63.6117 49.9015C64.8464 48.9222 66.6347 49.1351 67.6566 50.3699C68.4656 51.3918 71.148 53.9465 73.7027 53.8187C75.3207 53.7336 76.9386 52.4562 78.4714 50.0719C79.323 48.7519 81.1113 48.3262 82.4312 49.2203C83.7511 50.0719 84.1769 51.8601 83.2828 53.1801C80.6855 57.225 77.5773 59.3539 73.9582 59.5668H73.4472ZM65.7832 133.993C65.6554 133.993 65.5277 133.993 65.4 133.951C63.6968 133.738 62.5046 132.205 62.7175 130.502C64.3355 117.601 76.6406 114.833 82.9421 115.131C84.6453 115.216 85.9652 116.664 85.88 118.367C85.7949 120.07 84.3472 121.39 82.6441 121.305C81.3668 121.262 70.1261 121.05 68.8488 131.268C68.6785 132.886 67.316 133.993 65.7832 133.993ZM91.2875 109.128C89.925 109.128 88.5199 108.957 87.1148 108.532C81.4945 106.956 77.3218 102.613 76.2148 97.2058C74.5117 88.5625 80.8984 81.6648 88.1367 79.3656C89.7546 78.8547 91.5004 79.7488 92.0113 81.3668C92.5222 82.9848 91.6281 84.7305 90.0101 85.2414C85.3691 86.7316 81.239 90.9043 82.2609 96.0137C82.9847 99.718 86.0929 101.847 88.7328 102.571C91.9687 103.465 95.1195 102.656 97.1632 100.399C98.3128 99.1219 100.271 99.0367 101.506 100.186C102.784 101.336 102.869 103.295 101.719 104.529C99.0793 107.552 95.2898 109.128 91.2875 109.128ZM103.976 51.4769C102.826 51.4769 101.677 50.7957 101.166 49.6887C101.123 49.6035 99.9734 47.2617 97.8871 46.5379C96.6097 46.1121 95.2046 46.2824 93.5015 47.134C91.9687 47.9004 90.1378 47.2617 89.3714 45.7289C88.605 44.1961 89.2437 42.3652 90.7765 41.5988C94.8214 39.5976 98.0148 40.066 100.016 40.7472C104.572 42.3652 106.616 46.623 106.828 47.134C107.552 48.6668 106.828 50.4976 105.296 51.2215C104.827 51.3918 104.402 51.4769 103.976 51.4769Z" fill="#1D2228"/>
<path d="M89.5844 64.7613C87.1574 64.7613 84.0492 64.2504 81.6223 62.1641C78.8973 59.8223 77.7051 56.2031 78.1309 51.4344C78.2586 49.859 79.6637 48.6668 81.2391 48.8371C82.8145 48.9648 83.9641 50.3699 83.8363 51.9453C83.5809 54.7555 84.0918 56.7566 85.3266 57.8211C87.2852 59.4816 91.032 59.0559 92.2242 58.7578C93.757 58.3746 95.3324 59.3113 95.7156 60.8441C96.0988 62.3769 95.1621 63.9523 93.6293 64.3355C93.2461 64.3781 91.6281 64.7613 89.5844 64.7613Z" fill="#1D2228"/>
<path d="M82.7718 53.7762C82.0054 53.7762 81.1964 53.6484 80.3875 53.3504C79.323 52.9672 78.3437 52.4137 77.6624 51.6898C76.6832 50.7105 76.3425 49.5183 76.7257 48.4539C77.1089 47.3894 78.0882 46.6656 79.4507 46.4527C80.3875 46.325 81.5371 46.4527 82.6015 46.8359C85.3691 47.7726 86.9019 49.8164 86.2632 51.6898C85.88 52.7543 84.9007 53.4781 83.5382 53.691C83.3253 53.7336 83.0699 53.7762 82.7718 53.7762Z" fill="#1D2228"/>
<path d="M195.306 194.582C193.22 178.615 185.768 108.915 181 90.5211C179.424 84.3898 174.741 77.2793 167.204 79.6211C164.053 80.6004 161.882 83.7512 160.392 86.5187C160.009 87.2 157.667 94.3105 157.795 94.3105C157.752 94.3105 150.003 95.1195 150.003 95.1195C150.003 95.1195 142.296 95.9285 142.211 95.9285C142.339 95.9285 138.549 89.4566 138.038 88.8605C136.037 86.4762 133.227 83.8363 129.948 83.5383C122.114 82.8144 119.048 90.7766 118.75 97.0781C117.941 116.068 125.307 185.768 126.627 201.82L127.138 207.952C127.436 211.826 130.63 214.849 134.504 214.892C140.082 214.934 147.448 213.359 150.301 205.525L161.584 204.332L172.867 203.14C177.338 210.166 184.832 210.166 190.282 208.973C194.071 208.122 196.541 204.503 196.03 200.628C195.859 198.627 195.604 196.583 195.306 194.582Z" fill="#8318A9" fill-opacity="0.79"/>
<path d="M134.717 218H134.547C129.139 217.957 124.541 213.7 124.115 208.207L123.604 202.076C123.306 198.457 122.71 192.155 121.944 184.15C119.389 157.113 115.089 111.81 115.727 96.9504C115.983 91.2449 118.069 86.1355 121.348 83.2402C123.775 81.1113 126.883 80.132 130.289 80.4301C133.78 80.7281 137.102 82.857 140.465 86.8168C140.636 86.9871 141.019 87.4555 143.062 90.9469C143.446 91.5855 143.744 92.0965 143.999 92.5648C146.298 92.3094 149.705 91.9687 149.705 91.9687C149.705 91.9687 153.111 91.6281 155.41 91.3727C155.58 90.8617 155.793 90.2656 156.006 89.5844C157.284 85.7523 157.582 85.1988 157.667 84.9859C160.136 80.3875 162.946 77.6199 166.268 76.598C169.546 75.5762 172.739 75.8742 175.592 77.4496C179.382 79.5785 182.532 84.1344 183.98 89.6695C187.727 104.104 193.049 149.236 196.2 176.231C197.137 184.193 197.861 190.495 198.371 194.114L199.18 200.202C199.904 205.61 196.328 210.804 191.048 211.954C182.703 213.785 175.848 211.826 171.505 206.376L152.557 208.377C149.449 214.636 143.19 218 134.717 218ZM129.097 86.6039C127.692 86.6039 126.5 87.0297 125.478 87.9238C123.093 90.0101 122.114 94.0976 121.944 97.2484C121.348 111.682 125.605 156.687 128.16 183.597C128.927 191.602 129.523 197.946 129.821 201.607L130.332 207.739C130.502 210.038 132.418 211.826 134.632 211.826H134.76C141.445 211.826 145.745 209.357 147.533 204.503C147.959 203.396 148.938 202.629 150.088 202.502L172.654 200.117C173.804 199.989 174.954 200.543 175.592 201.522C178.402 205.95 183.129 207.441 189.728 205.993C191.9 205.525 193.39 203.353 193.092 201.096L192.283 195.008C191.814 191.389 191.048 185.045 190.111 177.04C186.961 150.216 181.681 105.296 178.019 91.2875C177.253 88.2644 175.422 84.475 172.612 82.9422C171.249 82.1758 169.802 82.048 168.141 82.6016C166.48 83.1125 164.82 84.9008 163.202 87.9238C162.819 88.818 161.243 93.6293 160.903 94.7363C160.732 96.0988 159.625 97.2059 158.178 97.3762H158.135C157.582 97.4187 150.386 98.1852 150.386 98.1852C150.386 98.1852 142.807 98.9941 142.637 98.9941C141.189 99.1644 139.869 98.2703 139.401 96.993C138.847 95.9711 136.293 91.5855 135.739 90.7766C133.525 88.1793 131.524 86.7742 129.778 86.6039H129.097Z" fill="#1D2228"/>
<path d="M150.386 208.633H150.088C148.385 208.462 147.15 206.972 147.32 205.269C148.342 194.752 136.718 192.581 136.207 192.496C134.547 192.198 133.397 190.58 133.695 188.919C133.993 187.259 135.611 186.109 137.272 186.407C143.403 187.514 154.729 192.964 153.452 205.865C153.324 207.441 151.961 208.633 150.386 208.633ZM133.312 179.339C128.118 179.339 123.647 176.784 121.177 172.441C120.326 170.951 120.879 169.078 122.327 168.226C123.817 167.375 125.691 167.928 126.542 169.376C128.586 172.995 132.29 173.208 133.78 173.123C137.272 172.952 140.423 170.909 141.743 167.886C143.871 163.117 140.721 158.135 136.548 155.666C135.058 154.814 134.589 152.898 135.441 151.45C136.293 150.003 138.209 149.492 139.656 150.343C146.213 154.218 150.939 162.35 147.363 170.398C145.064 175.507 139.869 178.998 134.036 179.296C133.823 179.339 133.568 179.339 133.312 179.339ZM131.524 119.687C130.885 119.687 130.204 119.474 129.65 119.048C128.288 118.027 128.032 116.068 129.054 114.705C129.352 114.28 132.29 110.575 137.102 109.979C139.188 109.724 142.424 110.022 145.915 112.832C147.235 113.896 147.448 115.855 146.384 117.175C145.319 118.495 143.361 118.708 142.041 117.643C140.55 116.451 139.188 115.94 137.868 116.111C135.654 116.366 134.036 118.41 133.993 118.41C133.355 119.261 132.461 119.687 131.524 119.687ZM145.319 136.165C141.743 136.165 138.634 134.675 138.166 134.462C136.761 133.738 136.165 132.035 136.889 130.63C137.612 129.225 139.316 128.628 140.721 129.352C141.87 129.948 145.404 131.141 147.661 129.948C149.109 129.182 150.003 127.351 150.386 124.541C150.599 122.966 152.046 121.859 153.622 122.071C155.197 122.284 156.304 123.732 156.091 125.307C155.453 130.076 153.494 133.312 150.343 135.015C148.683 135.824 146.937 136.165 145.319 136.165ZM172.952 206.248C171.632 206.248 170.44 205.397 170.014 204.12C166.055 191.772 176.061 184.023 181.894 181.681C183.469 181.042 185.257 181.809 185.896 183.384C186.535 184.959 185.768 186.748 184.193 187.386C183.001 187.897 172.739 192.453 175.89 202.246C176.401 203.864 175.507 205.61 173.889 206.121C173.591 206.206 173.25 206.248 172.952 206.248ZM180.233 174.102C175.464 174.102 171.036 171.973 168.269 168.184C163.074 161.073 166.012 152.132 171.59 146.98C172.825 145.83 174.783 145.915 175.975 147.15C177.125 148.385 177.04 150.343 175.805 151.536C172.229 154.814 170.227 160.349 173.293 164.564C175.507 167.63 179.211 168.226 181.936 167.8C185.257 167.247 187.77 165.203 188.664 162.308C189.175 160.69 190.92 159.796 192.538 160.264C194.156 160.775 195.093 162.521 194.582 164.139C193.007 169.248 188.536 172.995 182.958 173.889C181.979 174.059 181.085 174.102 180.233 174.102ZM160.434 116.621C159.753 116.621 159.072 116.409 158.476 115.94C157.156 114.876 156.943 112.917 158.007 111.597C160.818 108.106 163.926 107.127 166.012 106.956C170.823 106.53 174.443 109.553 174.868 109.894C176.146 111.001 176.316 112.96 175.209 114.237C174.102 115.514 172.143 115.685 170.866 114.578C170.781 114.535 168.78 112.875 166.566 113.13C165.246 113.258 164.011 114.024 162.861 115.514C162.223 116.196 161.328 116.621 160.434 116.621Z" fill="#1D2228"/>
<path d="M161.03 134.504C160.136 134.504 159.242 134.377 158.348 134.121C154.899 133.142 152.302 130.374 150.684 125.861C150.13 124.371 150.939 122.71 152.43 122.199C153.92 121.646 155.58 122.455 156.091 123.945C157.071 126.627 158.348 128.203 159.923 128.628C162.393 129.31 165.586 127.394 166.566 126.585C167.8 125.605 169.589 125.818 170.611 127.053C171.59 128.288 171.419 130.076 170.185 131.055C169.631 131.439 165.671 134.504 161.03 134.504Z" fill="#1D2228"/>
<path d="M152.728 126.67C151.876 126.67 151.11 126.542 150.428 126.287C149.151 125.818 148.342 124.882 148.214 123.775C148.087 122.668 148.683 121.603 149.832 120.837C150.641 120.326 151.706 119.943 152.855 119.815C154.005 119.687 155.112 119.815 156.006 120.155C157.284 120.624 158.093 121.561 158.22 122.668C158.348 123.775 157.752 124.839 156.602 125.605C155.793 126.116 154.729 126.5 153.579 126.627C153.281 126.67 152.983 126.67 152.728 126.67Z" fill="#1D2228"/>
</g>
<defs>
<clipPath id="clip0_6_23">
<rect width="218" height="218" fill="white"/>
</clipPath>
</defs>
</svg>
